<svg width="96" height="44" viewBox="0 0 96 44" fill="none" xmlns="http://www.w3.org/2000/svg">
<rect width="96" height="44" rx="12" fill="#3E66FB"/>
<path d="M15.8787 28.5224C15.7581 28.5224 15.6556 28.4802 15.5712 28.3958C15.4868 28.3114 15.4446 28.2088 15.4446 28.0883V16.312C15.4446 16.1793 15.4868 16.0708 15.5712 15.9863C15.6556 15.9019 15.7581 15.8597 15.8787 15.8597H21.1247C22.1015 15.8597 22.8975 16.0105 23.5125 16.312C24.1276 16.6014 24.5798 17.0054 24.8692 17.524C25.1707 18.0425 25.3215 18.6455 25.3215 19.3329C25.3215 19.7912 25.2371 20.1952 25.0682 20.5449C24.9114 20.8826 24.7125 21.16 24.4713 21.377C24.2421 21.5941 24.013 21.7629 23.7839 21.8835C24.2542 22.1006 24.6702 22.4624 25.032 22.9689C25.3938 23.4754 25.5747 24.0784 25.5747 24.7779C25.5747 25.5014 25.4119 26.1466 25.0863 26.7134C24.7607 27.2803 24.2783 27.7265 23.6391 28.0521C23 28.3656 22.2101 28.5224 21.2694 28.5224H15.8787ZM17.959 26.6049H20.98C21.6312 26.6049 22.1257 26.43 22.4633 26.0803C22.801 25.7185 22.9698 25.2844 22.9698 24.7779C22.9698 24.2472 22.795 23.8071 22.4452 23.4573C22.1076 23.1076 21.6191 22.9327 20.98 22.9327H17.959V26.6049ZM17.959 21.0514H20.7991C21.4382 21.0514 21.9146 20.9007 22.2282 20.5992C22.5538 20.2856 22.7166 19.8816 22.7166 19.3872C22.7166 18.8807 22.5538 18.4887 22.2282 18.2114C21.9146 17.9219 21.4382 17.7772 20.7991 17.7772H17.959V21.0514ZM32.9128 28.7033C31.7913 28.7033 30.8386 28.5103 30.0547 28.1244C29.2829 27.7265 28.6919 27.1657 28.2819 26.4421C27.8719 25.7065 27.6427 24.8261 27.5945 23.801C27.5824 23.3066 27.5764 22.776 27.5764 22.2091C27.5764 21.6423 27.5824 21.0997 27.5945 20.5811C27.6427 19.5681 27.8719 18.6937 28.2819 17.9581C28.704 17.2225 29.3009 16.6617 30.0728 16.2758C30.8566 15.8778 31.8033 15.6788 32.9128 15.6788C33.7329 15.6788 34.4685 15.7874 35.1198 16.0044C35.771 16.2215 36.3257 16.523 36.784 16.9089C37.2423 17.2828 37.598 17.7229 37.8513 18.2294C38.1045 18.736 38.2372 19.2847 38.2492 19.8756C38.2613 19.9841 38.2251 20.0746 38.1407 20.1469C38.0683 20.2193 37.9779 20.2555 37.8694 20.2555H36.1509C36.0182 20.2555 35.9097 20.2253 35.8252 20.165C35.7408 20.0927 35.6805 19.9781 35.6443 19.8213C35.4514 19.0254 35.1198 18.4827 34.6494 18.1933C34.1791 17.9038 33.5942 17.7591 32.8947 17.7591C32.0867 17.7591 31.4415 17.9883 30.9592 18.4465C30.4768 18.8927 30.2175 19.6344 30.1813 20.6715C30.1451 21.6604 30.1451 22.6734 30.1813 23.7106C30.2175 24.7477 30.4768 25.4954 30.9592 25.9537C31.4415 26.3999 32.0867 26.623 32.8947 26.623C33.5942 26.623 34.1791 26.4783 34.6494 26.1888C35.1198 25.8874 35.4514 25.3447 35.6443 24.5608C35.6805 24.392 35.7408 24.2774 35.8252 24.2171C35.9097 24.1568 36.0182 24.1266 36.1509 24.1266H37.8694C37.9779 24.1266 38.0683 24.1628 38.1407 24.2352C38.2251 24.3075 38.2613 24.398 38.2492 24.5065C38.2372 25.0974 38.1045 25.6462 37.8513 26.1527C37.598 26.6592 37.2423 27.1054 36.784 27.4913C36.3257 27.8651 35.771 28.1606 35.1198 28.3777C34.4685 28.5948 33.7329 28.7033 32.9128 28.7033ZM41.0296 28.5224C40.897 28.5224 40.7884 28.4802 40.704 28.3958C40.6196 28.3114 40.5774 28.2088 40.5774 28.0883V16.312C40.5774 16.1793 40.6196 16.0708 40.704 15.9863C40.7884 15.9019 40.897 15.8597 41.0296 15.8597H42.4587C42.6275 15.8597 42.7542 15.908 42.8386 16.0044C42.923 16.0888 42.9773 16.1552 43.0014 16.2034L46.4927 22.7157L50.0201 16.2034C50.0443 16.1552 50.0985 16.0888 50.1829 16.0044C50.2674 15.908 50.394 15.8597 50.5628 15.8597H51.9738C52.1065 15.8597 52.215 15.9019 52.2994 15.9863C52.3838 16.0708 52.426 16.1793 52.426 16.312V28.0883C52.426 28.2088 52.3838 28.3114 52.2994 28.3958C52.215 28.4802 52.1065 28.5224 51.9738 28.5224H50.4543C50.3216 28.5224 50.2131 28.4802 50.1287 28.3958C50.0563 28.3114 50.0201 28.2088 50.0201 28.0883V20.2555L47.4876 25.0854C47.4273 25.1939 47.3489 25.2904 47.2524 25.3748C47.156 25.4472 47.0293 25.4834 46.8725 25.4834H46.1309C45.962 25.4834 45.8294 25.4472 45.7329 25.3748C45.6485 25.2904 45.5761 25.1939 45.5158 25.0854L42.9833 20.2555V28.0883C42.9833 28.2088 42.9411 28.3114 42.8567 28.3958C42.7723 28.4802 42.6697 28.5224 42.5491 28.5224H41.0296ZM59.5335 28.5224C59.4555 28.5224 59.3931 28.499 59.3463 28.4522C59.2995 28.4054 59.2761 28.343 59.2761 28.265V22.6951C59.2761 22.617 59.2995 22.5546 59.3463 22.5078C59.3931 22.461 59.4555 22.4376 59.5335 22.4376H59.7324C59.8104 22.4376 59.8728 22.461 59.9197 22.5078C59.9665 22.5546 59.9899 22.617 59.9899 22.6951V23.245C60.2005 22.972 60.454 22.7497 60.7505 22.578C61.0547 22.4064 61.4564 22.3206 61.9557 22.3206C62.4862 22.3206 62.9269 22.4376 63.278 22.6717C63.6368 22.8979 63.9021 23.2099 64.0737 23.6078C64.2531 23.9978 64.3428 24.4425 64.3428 24.9417V28.265C64.3428 28.343 64.3194 28.4054 64.2726 28.4522C64.2258 28.499 64.1634 28.5224 64.0854 28.5224H63.8865C63.8084 28.5224 63.746 28.499 63.6992 28.4522C63.6524 28.4054 63.629 28.343 63.629 28.265V25.0003C63.629 24.3762 63.4769 23.8886 63.1727 23.5376C62.8684 23.1787 62.4238 22.9993 61.8387 22.9993C61.2848 22.9993 60.8363 23.1787 60.493 23.5376C60.1576 23.8886 59.9899 24.3762 59.9899 25.0003V28.265C59.9899 28.343 59.9665 28.4054 59.9197 28.4522C59.8728 28.499 59.8104 28.5224 59.7324 28.5224H59.5335ZM68.6193 28.6394C67.8626 28.6394 67.262 28.3937 66.8173 27.9022C66.3727 27.403 66.1191 26.7516 66.0567 25.9481C66.0489 25.8311 66.045 25.675 66.045 25.48C66.045 25.285 66.0489 25.129 66.0567 25.012C66.0957 24.4815 66.2205 24.0134 66.4312 23.6078C66.6418 23.2021 66.9304 22.8862 67.2971 22.66C67.6715 22.4337 68.1123 22.3206 68.6193 22.3206C69.1654 22.3206 69.6296 22.4415 70.0118 22.6834C70.3941 22.9252 70.6866 23.2723 70.8894 23.7248C71.1001 24.1772 71.2054 24.7155 71.2054 25.3396V25.5151C71.2054 25.5931 71.1781 25.6555 71.1235 25.7023C71.0767 25.7491 71.0142 25.7725 70.9362 25.7725H66.7705C66.7705 25.7725 66.7705 25.7882 66.7705 25.8194C66.7705 25.8506 66.7705 25.874 66.7705 25.8896C66.7861 26.2406 66.868 26.5761 67.0162 26.8959C67.1645 27.2079 67.3751 27.4654 67.6481 27.6682C67.9212 27.8632 68.2449 27.9607 68.6193 27.9607C68.9548 27.9607 69.2317 27.91 69.4501 27.8086C69.6764 27.7072 69.8558 27.598 69.9884 27.481C70.121 27.3562 70.2068 27.2625 70.2458 27.2001C70.3161 27.0987 70.3707 27.0402 70.4097 27.0246C70.4487 27.0012 70.5111 26.9895 70.5969 26.9895H70.7841C70.8543 26.9895 70.9128 27.0129 70.9596 27.0597C71.0142 27.0987 71.0376 27.1533 71.0298 27.2235C71.022 27.3327 70.9596 27.4693 70.8426 27.6331C70.7334 27.7891 70.5735 27.9451 70.3629 28.1011C70.16 28.2572 69.9104 28.3859 69.614 28.4873C69.3175 28.5887 68.986 28.6394 68.6193 28.6394ZM66.7705 25.1173H70.4916V25.0705C70.4916 24.6804 70.4175 24.3294 70.2693 24.0173C70.121 23.7053 69.9065 23.4596 69.6257 23.2801C69.3448 23.0929 69.0094 22.9993 68.6193 22.9993C68.2293 22.9993 67.8938 23.0929 67.613 23.2801C67.34 23.4596 67.1294 23.7053 66.9811 24.0173C66.8407 24.3294 66.7705 24.6804 66.7705 25.0705V25.1173ZM72.536 28.5224C72.4736 28.5224 72.4189 28.499 72.3721 28.4522C72.3253 28.4054 72.3019 28.3508 72.3019 28.2884C72.3019 28.2572 72.3058 28.226 72.3136 28.1948C72.3292 28.1558 72.3565 28.1089 72.3955 28.0543L74.455 25.4098L72.5009 22.9057C72.4619 22.8511 72.4345 22.8082 72.4189 22.777C72.4111 22.738 72.4072 22.7029 72.4072 22.6717C72.4072 22.6092 72.4306 22.5546 72.4775 22.5078C72.5243 22.461 72.5789 22.4376 72.6413 22.4376H72.887C72.965 22.4376 73.0235 22.4571 73.0625 22.4961C73.1093 22.5351 73.1483 22.5741 73.1795 22.6131L74.9348 24.8715L76.69 22.6248C76.729 22.5858 76.768 22.5468 76.807 22.5078C76.846 22.461 76.9045 22.4376 76.9825 22.4376H77.2166C77.279 22.4376 77.3336 22.461 77.3804 22.5078C77.4272 22.5546 77.4506 22.6092 77.4506 22.6717C77.4506 22.7029 77.4428 22.738 77.4272 22.777C77.4194 22.8082 77.396 22.8511 77.357 22.9057L75.3794 25.4449L77.4389 28.0543C77.4779 28.1089 77.5013 28.1558 77.5091 28.1948C77.5247 28.226 77.5325 28.2572 77.5325 28.2884C77.5325 28.3508 77.5091 28.4054 77.4623 28.4522C77.4155 28.499 77.3609 28.5224 77.2985 28.5224H77.0527C76.9747 28.5224 76.9123 28.5029 76.8655 28.4639C76.8265 28.4249 76.7914 28.3859 76.7602 28.3469L74.9114 25.9832L73.0625 28.3469C73.0313 28.3859 72.9923 28.4249 72.9455 28.4639C72.9065 28.5029 72.848 28.5224 72.77 28.5224H72.536ZM81.1272 28.5224C80.7216 28.5224 80.4017 28.4366 80.1677 28.265C79.9337 28.0933 79.7699 27.8593 79.6762 27.5629C79.5826 27.2664 79.5358 26.9349 79.5358 26.5683V23.1163H78.6231C78.5451 23.1163 78.4827 23.0929 78.4359 23.0461C78.3891 22.9993 78.3657 22.9369 78.3657 22.8589V22.6951C78.3657 22.617 78.3891 22.5546 78.4359 22.5078C78.4827 22.461 78.5451 22.4376 78.6231 22.4376H79.5358V20.4718C79.5358 20.3938 79.5592 20.3314 79.606 20.2845C79.6528 20.2377 79.7153 20.2143 79.7933 20.2143H79.9922C80.0702 20.2143 80.1326 20.2377 80.1794 20.2845C80.2262 20.3314 80.2496 20.3938 80.2496 20.4718V22.4376H81.7006C81.7786 22.4376 81.841 22.461 81.8878 22.5078C81.9346 22.5546 81.958 22.617 81.958 22.6951V22.8589C81.958 22.9369 81.9346 22.9993 81.8878 23.0461C81.841 23.0929 81.7786 23.1163 81.7006 23.1163H80.2496V26.5214C80.2496 26.9349 80.3159 27.2586 80.4485 27.4927C80.589 27.7267 80.8347 27.8437 81.1857 27.8437H81.8176C81.8956 27.8437 81.958 27.8671 82.0048 27.9139C82.0517 27.9607 82.0751 28.0231 82.0751 28.1011V28.265C82.0751 28.343 82.0517 28.4054 82.0048 28.4522C81.958 28.499 81.8956 28.5224 81.8176 28.5224H81.1272Z" fill="white"/>
</svg>
