<svg width="235" height="237" viewBox="0 0 235 237" fill="none" xmlns="http://www.w3.org/2000/svg">
<path d="M14.5827 0C6.52888 0 -0.0463562 6.5349 0.444717 14.5737C2.0415 40.7126 7.92549 66.4389 17.8883 90.696C29.6982 119.45 47.0082 145.577 68.8299 167.584C90.6517 189.592 116.558 207.049 145.069 218.959C169.084 228.991 194.551 234.922 220.427 236.544C228.465 237.048 235 230.471 235 222.417V174.276C235 166.222 228.457 159.763 220.438 159.016C204.637 157.545 189.116 153.683 174.404 147.537C155.193 139.512 137.737 127.749 123.033 112.92C108.329 98.0911 96.6656 80.4867 88.708 61.1119C82.5984 46.2366 78.7653 30.5414 77.3144 14.5629C76.5861 6.54213 70.1258 0 62.072 0H14.5827Z" fill="#B57BFF"/>
<path d="M14.5827 0C6.52888 0 -0.0463562 6.5349 0.444717 14.5737C2.0415 40.7126 7.92549 66.4389 17.8883 90.696C29.6982 119.45 47.0082 145.577 68.8299 167.584C90.6517 189.592 116.558 207.049 145.069 218.959C169.084 228.991 194.551 234.922 220.427 236.544C228.465 237.048 235 230.471 235 222.417V174.276C235 166.222 228.457 159.763 220.438 159.016C204.637 157.545 189.116 153.683 174.404 147.537C155.193 139.512 137.737 127.749 123.033 112.92C108.329 98.0911 96.6656 80.4867 88.708 61.1119C82.5984 46.2366 78.7653 30.5414 77.3144 14.5629C76.5861 6.54213 70.1258 0 62.072 0H14.5827Z" fill="white" fill-opacity="0.9"/>
</svg>
