<svg width="245" height="245" viewBox="0 0 245 245" fill="none" xmlns="http://www.w3.org/2000/svg">
<path d="M230.132 244.715C238.186 244.715 244.76 238.18 244.28 230.141C242.66 202.988 236.522 176.26 226.087 151.066C213.789 121.376 195.763 94.3992 173.039 71.6753C150.316 48.9514 123.338 30.9259 93.6483 18.6278C68.455 8.1924 41.727 2.05432 14.5742 0.43436C6.53472 -0.0452826 0 6.52887 0 14.5826V65.2409C0 73.2946 6.54148 79.7566 14.5638 80.4679C31.2257 81.9453 47.5949 85.9522 63.1012 92.3751C83.1067 100.662 101.284 112.807 116.596 128.119C131.907 143.431 144.053 161.608 152.34 181.614C158.763 197.12 162.769 213.489 164.247 230.151C164.958 238.173 171.42 244.715 179.474 244.715H230.132Z" fill="#B57BFF"/>
<path d="M230.132 244.715C238.186 244.715 244.76 238.18 244.28 230.141C242.66 202.988 236.522 176.26 226.087 151.066C213.789 121.376 195.763 94.3992 173.039 71.6753C150.316 48.9514 123.338 30.9259 93.6483 18.6278C68.455 8.1924 41.727 2.05432 14.5742 0.43436C6.53472 -0.0452826 0 6.52887 0 14.5826V65.2409C0 73.2946 6.54148 79.7566 14.5638 80.4679C31.2257 81.9453 47.5949 85.9522 63.1012 92.3751C83.1067 100.662 101.284 112.807 116.596 128.119C131.907 143.431 144.053 161.608 152.34 181.614C158.763 197.12 162.769 213.489 164.247 230.151C164.958 238.173 171.42 244.715 179.474 244.715H230.132Z" fill="white" fill-opacity="0.9"/>
</svg>
