<svg width="311" height="173" viewBox="0 0 311 173" fill="none" xmlns="http://www.w3.org/2000/svg">
<g clip-path="url(#clip0_2106_64)">
<path d="M160.031 171.15C155.114 171.874 150.139 172.115 145.175 171.868C133.207 171.263 121.436 167.782 111.377 161.237C106.917 158.335 102.663 154.769 100.354 149.98C97.2208 143.475 98.3166 135.241 102.791 129.576C104.423 127.532 106.431 125.819 108.706 124.53C109.043 124.339 109.387 124.156 109.735 123.98C113.526 122.074 117.784 121.294 122.004 121.734C129.179 122.518 135.801 126.901 139.627 133.024C143.035 138.484 144.222 144.926 144.922 151.383C145.054 152.6 145.168 153.82 145.278 155.033C144.668 158.547 143.709 161.992 142.416 165.316C142.35 165.478 142.296 165.644 142.254 165.814C142.987 167.405 143.685 169.01 144.347 170.629C144.969 170.967 145.666 171.144 146.373 171.142H160.002L160.031 171.15Z" fill="#F2F2F2"/>
<path d="M144.065 171.461C143.974 171.501 143.877 171.523 143.778 171.525C143.679 171.528 143.581 171.51 143.488 171.474C143.396 171.438 143.312 171.384 143.241 171.315C143.171 171.246 143.114 171.163 143.075 171.072C143.017 170.933 142.962 170.794 142.903 170.655C142.375 169.372 141.822 168.102 141.243 166.844C133.83 150.608 122.774 136.299 108.933 125.031C108.853 124.975 108.79 124.9 108.75 124.811C108.711 124.723 108.695 124.625 108.706 124.529C108.726 124.419 108.77 124.314 108.837 124.224C108.903 124.133 108.989 124.058 109.088 124.005C109.187 123.953 109.296 123.923 109.408 123.918C109.521 123.914 109.632 123.935 109.735 123.979C109.79 124.004 109.842 124.037 109.889 124.075C115.811 128.898 121.244 134.293 126.108 140.18C130.974 146.063 135.258 152.403 138.901 159.111C139.894 160.944 140.837 162.802 141.73 164.685C141.906 165.059 142.082 165.436 142.254 165.814C142.987 167.404 143.685 169.009 144.347 170.629C144.358 170.655 144.369 170.684 144.38 170.71C144.414 170.779 144.432 170.855 144.434 170.932C144.436 171.009 144.422 171.085 144.392 171.157C144.362 171.228 144.318 171.292 144.261 171.344C144.205 171.397 144.138 171.436 144.065 171.461Z" fill="white"/>
<path d="M95.4619 123.129C103.355 123.129 109.754 116.731 109.754 108.838C109.754 100.945 103.355 94.546 95.4619 94.546C87.5688 94.546 81.1702 100.945 81.1702 108.838C81.1702 116.731 87.5688 123.129 95.4619 123.129Z" fill="#3E66FB"/>
<path d="M94.0452 114.289C93.7237 114.289 93.4107 114.185 93.1534 113.993L93.1374 113.981L89.7788 111.409C89.6231 111.29 89.4925 111.141 89.3943 110.972C89.2961 110.802 89.2323 110.615 89.2066 110.42C89.1808 110.226 89.1936 110.029 89.2441 109.839C89.2947 109.65 89.3821 109.472 89.5013 109.317C89.6205 109.161 89.7692 109.03 89.9389 108.932C90.1086 108.834 90.296 108.771 90.4903 108.745C90.6846 108.719 90.8821 108.732 91.0715 108.783C91.2608 108.833 91.4383 108.921 91.5939 109.04L93.7693 110.708L98.9103 104.004C99.0296 103.848 99.1782 103.718 99.3479 103.62C99.5176 103.522 99.7049 103.458 99.8992 103.432C100.093 103.407 100.291 103.419 100.48 103.47C100.669 103.521 100.847 103.608 101.002 103.727L100.97 103.771L101.003 103.728C101.317 103.969 101.522 104.325 101.574 104.717C101.626 105.109 101.52 105.506 101.279 105.82L95.2324 113.706C95.0925 113.888 94.9127 114.035 94.7068 114.136C94.5009 114.237 94.2745 114.289 94.0452 114.289Z" fill="white"/>
<path d="M90.1954 100.441C90.4634 99.9315 90.6164 99.3696 90.6437 98.7948C90.671 98.2199 90.572 97.646 90.3535 97.1136C90.1351 96.5811 89.8025 96.1031 89.3793 95.7131C88.9561 95.323 88.4525 95.0306 87.904 94.8562L72.5804 62.4401L65.5709 67.3553L82.8376 97.6738C82.6058 98.6146 82.7272 99.6078 83.1787 100.465C83.6302 101.322 84.3805 101.984 85.2875 102.325C86.1944 102.666 87.195 102.663 88.0995 102.316C89.0041 101.968 89.7498 101.301 90.1954 100.441V100.441Z" fill="#FFB8B8"/>
<path d="M76.0944 67.8478L67.956 71.487C67.7245 71.5905 67.4733 71.6429 67.2197 71.6406C66.966 71.6384 66.7158 71.5815 66.4862 71.4738C66.2565 71.3661 66.0528 71.2102 65.8888 71.0167C65.7248 70.8231 65.6045 70.5965 65.5359 70.3523L63.136 61.7945C62.613 60.6067 62.5823 59.2601 63.0506 58.0497C63.519 56.8394 64.4482 55.8642 65.6345 55.3379C66.8207 54.8116 68.1673 54.7772 69.3789 55.2422C70.5905 55.7072 71.5683 56.6337 72.0979 57.8185L76.8623 65.2876C76.9987 65.5015 77.0873 65.7422 77.1222 65.9935C77.1571 66.2447 77.1375 66.5005 77.0646 66.7435C76.9917 66.9865 76.8673 67.2108 76.6999 67.4014C76.5325 67.592 76.326 67.7442 76.0944 67.8478Z" fill="#CCCCCC"/>
<path d="M38.5082 103.654C39.0688 103.524 39.594 103.272 40.0469 102.917C40.4998 102.562 40.8693 102.112 41.1294 101.599C41.3895 101.085 41.5338 100.521 41.5523 99.9457C41.5708 99.3705 41.4629 98.7982 41.2363 98.2692L55.7487 65.4819L47.4469 63.3909L35.7921 96.2773C34.9286 96.7169 34.2564 97.458 33.9028 98.3601C33.5492 99.2623 33.5389 100.263 33.8736 101.172C34.2084 102.081 34.8651 102.836 35.7193 103.294C36.5735 103.751 37.5658 103.879 38.5082 103.654H38.5082Z" fill="#FFB8B8"/>
<path d="M34.5522 163.084L38.7737 164.621L46.7115 149.07L40.4807 146.801L34.5522 163.084Z" fill="#FFB8B8"/>
<path d="M45.4879 171.506L32.2203 166.675L34.0867 161.549L42.2282 164.513C43.5877 165.008 44.695 166.023 45.3063 167.334C45.9176 168.646 45.9829 170.146 45.4879 171.506Z" fill="#2F2E41"/>
<path d="M44.5376 154.135C44.2785 154.135 44.0227 154.078 43.7886 153.967L38.937 151.669C38.5392 151.482 38.2258 151.153 38.0584 150.747C37.891 150.341 37.8817 149.887 38.0324 149.474L51.7245 111.558C51.8379 111.244 52.038 110.968 52.3016 110.763C52.5653 110.559 52.8816 110.433 53.2139 110.4C53.5462 110.368 53.8808 110.431 54.179 110.581C54.4771 110.731 54.7265 110.963 54.8982 111.249L62.1402 123.319C62.3014 123.588 62.3881 123.895 62.3914 124.209C62.3947 124.522 62.3146 124.831 62.1593 125.103L46.0767 153.248C45.9208 153.518 45.6965 153.742 45.4263 153.898C45.156 154.054 44.8495 154.136 44.5376 154.135Z" fill="#2F2E41"/>
<path d="M73.734 82.6663L57.7977 78.2837L49.3217 61.332C48.9145 60.5177 48.7223 59.6127 48.7632 58.7031C48.8041 57.7936 49.0769 56.9096 49.5556 56.1351C50.0343 55.3605 50.703 54.7213 51.4982 54.2779C52.2935 53.8345 53.1889 53.6018 54.0994 53.6018H66.7784C68.0945 53.601 69.3644 54.0867 70.3441 54.9655C73.7453 58.0124 80.8909 66.7964 73.8029 82.5131L73.734 82.6663Z" fill="#CCCCCC"/>
<path d="M53.7842 71.3459L45.7099 67.5664C45.4802 67.4589 45.2763 67.3031 45.1122 67.1097C44.9481 66.9163 44.8277 66.6897 44.759 66.4455C44.6903 66.2014 44.6751 65.9452 44.7144 65.6946C44.7536 65.444 44.8464 65.2048 44.9864 64.9933L49.8934 57.5827C50.4503 56.4105 51.4493 55.507 52.6714 55.0702C53.8934 54.6334 55.2388 54.6991 56.4125 55.2527C57.5862 55.8063 58.4926 56.8027 58.9328 58.0235C59.373 59.2443 59.3112 60.5898 58.7609 61.7651L56.2235 70.2533C56.1508 70.4963 56.0265 70.7207 55.8592 70.9114C55.6919 71.1021 55.4855 71.2544 55.254 71.3581C55.0225 71.4618 54.7714 71.5144 54.5177 71.5123C54.2641 71.5102 54.0139 71.4534 53.7842 71.3459Z" fill="#CCCCCC"/>
<path d="M63.5529 167.334H68.0453L70.1828 150.005L63.5518 150.006L63.5529 167.334Z" fill="#FFB8B8"/>
<path d="M76.71 171.506L62.5902 171.506L62.59 166.051L71.2544 166.051C72.7012 166.051 74.0888 166.625 75.112 167.648C76.1351 168.671 76.7099 170.059 76.71 171.506Z" fill="#2F2E41"/>
<path d="M65.2491 160.731C64.8452 160.731 64.4534 160.593 64.1398 160.338C63.8262 160.083 63.61 159.728 63.5277 159.333C62.2363 153.248 55.5293 122.082 50.2946 106.029C44.9685 89.696 54.0391 82.2566 55.9115 80.9312C56.1109 80.7903 56.2693 80.599 56.3706 80.3769L57.731 77.3844C57.872 77.0755 58.0989 76.8136 58.3846 76.6299C58.6702 76.4463 59.0027 76.3486 59.3423 76.3486H59.3533C69.5512 76.4095 72.9795 79.6242 73.9801 81.0036C74.1277 81.209 74.2288 81.4441 74.2765 81.6926C74.3242 81.941 74.3173 82.1969 74.2563 82.4424L67.8039 109.063C67.7639 109.228 67.7548 109.399 67.7772 109.568L74.1968 157.903C74.2276 158.135 74.2119 158.371 74.1505 158.598C74.0892 158.824 73.9834 159.035 73.8393 159.22C73.6953 159.405 73.5159 159.56 73.3116 159.674C73.1073 159.789 72.8821 159.862 72.6493 159.889L65.4564 160.719C65.3876 160.727 65.3184 160.731 65.2491 160.731Z" fill="#2F2E41"/>
<path d="M216.758 75.1239C219.389 75.1239 221.522 72.9911 221.522 70.36C221.522 67.729 219.389 65.5962 216.758 65.5962C214.127 65.5962 211.994 67.729 211.994 70.36C211.994 72.9911 214.127 75.1239 216.758 75.1239Z" fill="#3E66FB"/>
<path d="M216.286 72.1771C216.179 72.1773 216.074 72.1426 215.988 72.0783L215.983 72.0743L214.864 71.2172C214.812 71.1775 214.768 71.128 214.735 71.0714C214.702 71.0148 214.681 70.9523 214.672 70.8875C214.663 70.8226 214.668 70.7567 214.684 70.6935C214.701 70.6303 214.731 70.571 214.77 70.5191C214.81 70.4671 214.86 70.4236 214.916 70.3909C214.973 70.3581 215.036 70.3369 215.1 70.3284C215.165 70.3199 215.231 70.3243 215.294 70.3413C215.358 70.3583 215.417 70.3876 215.469 70.4275L216.194 70.9836L217.907 68.7487C217.947 68.6969 217.997 68.6534 218.053 68.6207C218.11 68.588 218.172 68.5668 218.237 68.5582C218.302 68.5497 218.368 68.554 218.431 68.5709C218.494 68.5877 218.553 68.6169 218.605 68.6566L218.594 68.6711L218.605 68.6569C218.71 68.7372 218.778 68.8558 218.795 68.9865C218.813 69.1172 218.777 69.2495 218.697 69.3542L216.681 71.983C216.635 72.0435 216.575 72.0925 216.506 72.1262C216.438 72.1599 216.362 72.1773 216.286 72.1771Z" fill="white"/>
<path d="M216.758 89.0487C219.389 89.0487 221.522 86.9158 221.522 84.2848C221.522 81.6538 219.389 79.5209 216.758 79.5209C214.127 79.5209 211.994 81.6538 211.994 84.2848C211.994 86.9158 214.127 89.0487 216.758 89.0487Z" fill="#3E66FB"/>
<path d="M216.286 86.1018C216.179 86.102 216.074 86.0674 215.988 86.0031L215.983 85.9991L214.864 85.1419C214.812 85.1022 214.768 85.0527 214.735 84.9961C214.702 84.9396 214.681 84.8771 214.672 84.8122C214.663 84.7474 214.668 84.6815 214.684 84.6182C214.701 84.555 214.731 84.4957 214.77 84.4438C214.81 84.3919 214.86 84.3483 214.916 84.3156C214.973 84.2829 215.036 84.2617 215.1 84.2532C215.165 84.2447 215.231 84.249 215.294 84.266C215.358 84.283 215.417 84.3124 215.469 84.3523L216.194 84.9083L217.907 82.6734C217.947 82.6216 217.997 82.5781 218.053 82.5454C218.11 82.5127 218.172 82.4915 218.237 82.483C218.302 82.4744 218.368 82.4787 218.431 82.4956C218.494 82.5125 218.553 82.5416 218.605 82.5814L218.594 82.5958L218.605 82.5816C218.71 82.662 218.778 82.7805 218.795 82.9112C218.813 83.042 218.777 83.1742 218.697 83.279L216.681 85.9077C216.635 85.9683 216.575 86.0173 216.506 86.051C216.438 86.0846 216.362 86.102 216.286 86.1018Z" fill="white"/>
<path d="M219.323 105.173C221.954 105.173 224.087 103.04 224.087 100.409C224.087 97.7784 221.954 95.6455 219.323 95.6455C216.692 95.6455 214.559 97.7784 214.559 100.409C214.559 103.04 216.692 105.173 219.323 105.173Z" fill="#3E66FB"/>
<path d="M218.851 102.226C218.744 102.227 218.639 102.192 218.554 102.128L218.548 102.124L217.429 101.267C217.377 101.227 217.333 101.177 217.3 101.121C217.267 101.064 217.246 101.002 217.237 100.937C217.229 100.872 217.233 100.806 217.25 100.743C217.267 100.68 217.296 100.62 217.335 100.568C217.375 100.517 217.425 100.473 217.482 100.44C217.538 100.408 217.601 100.386 217.666 100.378C217.731 100.369 217.796 100.374 217.86 100.391C217.923 100.408 217.982 100.437 218.034 100.477L218.759 101.033L220.473 98.7981C220.512 98.7462 220.562 98.7027 220.618 98.67C220.675 98.6374 220.737 98.6161 220.802 98.6076C220.867 98.599 220.933 98.6033 220.996 98.6202C221.059 98.6371 221.118 98.6663 221.17 98.706L221.159 98.7205L221.17 98.7062C221.275 98.7866 221.343 98.9051 221.36 99.0359C221.378 99.1666 221.342 99.2988 221.262 99.4036L219.247 102.032C219.2 102.093 219.14 102.142 219.071 102.176C219.003 102.209 218.927 102.227 218.851 102.226Z" fill="white"/>
<path d="M265.26 140.183C265.211 140.183 265.18 140.182 265.169 140.181L259.254 140.182V139.31H265.19C265.328 139.314 268.132 139.394 270.715 136.259C274.565 131.587 277.727 120.021 270.925 91.4548C261.779 53.043 269.407 19.1082 273.111 6.30128C273.294 5.66767 273.326 5.0003 273.207 4.3519C273.087 3.7035 272.818 3.09184 272.421 2.56525C272.024 2.03865 271.51 1.61155 270.92 1.31769C270.33 1.02384 269.679 0.871274 269.02 0.872057H180.692C180.021 0.872958 179.359 1.03218 178.76 1.33681C178.162 1.64143 177.644 2.08288 177.248 2.62531C175.679 4.78372 173.525 8.93021 172.178 16.4278L171.32 16.2736C172.696 8.61319 174.92 4.34471 176.542 2.11263C177.019 1.45903 177.644 0.9271 178.365 0.560027C179.086 0.192954 179.883 0.00108566 180.692 2.37338e-06H269.02C269.815 -0.000762294 270.598 0.183257 271.31 0.537521C272.021 0.891785 272.64 1.40659 273.118 2.04126C273.596 2.67593 273.92 3.41307 274.064 4.19446C274.209 4.97584 274.169 5.78006 273.949 6.54356C270.264 19.2841 262.676 53.0428 271.773 91.253C278.671 120.221 275.355 132.037 271.359 136.849C268.723 140.022 265.819 140.183 265.26 140.183Z" fill="#E6E6E6"/>
<path d="M249.345 156.098C249.296 156.098 249.265 156.097 249.254 156.097L243.34 156.097V155.225H249.275C249.414 155.229 252.217 155.309 254.8 152.174C258.65 147.503 261.812 135.937 255.01 107.37C245.865 68.9585 253.492 35.0238 257.196 22.2168C257.379 21.5832 257.412 20.9158 257.292 20.2674C257.172 19.619 256.903 19.0074 256.506 18.4808C256.109 17.9542 255.596 17.5271 255.005 17.2332C254.415 16.9394 253.765 16.7868 253.105 16.7876H164.777C164.106 16.7885 163.444 16.9477 162.845 17.2523C162.247 17.557 161.729 17.9984 161.333 18.5408C159.764 20.6993 157.611 24.8457 156.263 32.3433L155.405 32.1892C156.781 24.5287 159.005 20.2602 160.628 18.0282C161.104 17.3746 161.729 16.8426 162.45 16.4756C163.171 16.1085 163.968 15.9166 164.777 15.9155H253.105C253.9 15.9148 254.684 16.0988 255.395 16.4531C256.106 16.8073 256.725 17.3221 257.203 17.9568C257.681 18.5915 258.005 19.3286 258.149 20.11C258.294 20.8914 258.254 21.6956 258.034 22.4591C254.349 35.1996 246.761 68.9583 255.859 107.169C262.756 136.137 259.44 147.953 255.444 152.764C252.808 155.938 249.904 156.098 249.345 156.098Z" fill="#CCCCCC"/>
<path d="M239.943 123.085C230.844 84.8752 238.434 51.1139 242.12 38.3759C242.34 37.6124 242.379 36.8083 242.234 36.0271C242.09 35.2458 241.766 34.5088 241.288 33.8742C240.81 33.2396 240.191 32.7247 239.48 32.3701C238.769 32.0155 237.986 31.831 237.191 31.8311H148.862C148.053 31.8319 147.256 32.0234 146.535 32.3902C145.814 32.7569 145.19 33.2886 144.713 33.9418C141.148 38.845 133.749 55.1045 142.013 100.094C146.432 124.163 146.366 140.572 144.922 151.383C144.112 157.47 142.863 161.779 141.73 164.685L141.609 164.993C141.371 165.581 141.247 166.209 141.243 166.844C141.235 167.56 141.378 168.27 141.664 168.927C141.95 169.584 142.373 170.173 142.903 170.655C143.249 170.979 143.64 171.25 144.065 171.461C144.417 171.641 144.79 171.777 145.175 171.868C145.567 171.963 145.97 172.011 146.373 172.01H233.34C233.351 172.01 233.38 172.014 233.432 172.014C233.989 172.014 236.895 171.853 239.529 168.679C243.524 163.868 246.84 152.053 239.943 123.085ZM238.884 168.089C236.301 171.226 233.498 171.146 233.362 171.142H146.373C145.677 171.142 144.991 170.971 144.376 170.645C143.761 170.318 143.235 169.846 142.844 169.269C142.501 168.771 142.27 168.203 142.168 167.607C142.066 167.01 142.096 166.398 142.254 165.814C142.296 165.644 142.35 165.477 142.416 165.315C143.709 161.991 144.668 158.547 145.278 155.033C147.344 143.764 147.729 126.376 142.87 99.9364C134.669 55.2804 141.921 39.2664 145.417 34.4549C145.813 33.9132 146.332 33.4725 146.93 33.1682C147.529 32.8639 148.19 32.7046 148.862 32.7032H237.191C237.85 32.7028 238.5 32.8555 239.09 33.1493C239.68 33.4432 240.194 33.8701 240.59 34.3964C240.987 34.9227 241.256 35.534 241.376 36.182C241.495 36.83 241.463 37.497 241.281 38.1304C237.576 50.938 229.95 84.8752 239.097 123.287C245.898 151.852 242.736 163.417 238.884 168.089Z" fill="#3F3D56"/>
<path d="M197.981 73.4377H152.472C151.547 73.4377 150.66 73.0702 150.006 72.416C149.352 71.7619 148.984 70.8746 148.984 69.9495C148.984 69.0244 149.352 68.1372 150.006 67.483C150.66 66.8288 151.547 66.4613 152.472 66.4613H197.981C198.906 66.4613 199.793 66.8288 200.447 67.483C201.101 68.1372 201.469 69.0244 201.469 69.9495C201.469 70.8746 201.101 71.7619 200.447 72.416C199.793 73.0702 198.906 73.4377 197.981 73.4377Z" fill="#CCCCCC"/>
<path d="M197.981 88.4619H152.472C151.547 88.4619 150.66 88.0944 150.006 87.4403C149.352 86.7861 148.984 85.8989 148.984 84.9737C148.984 84.0486 149.352 83.1614 150.006 82.5072C150.66 81.8531 151.547 81.4855 152.472 81.4855H197.981C198.906 81.4855 199.793 81.8531 200.447 82.5072C201.101 83.1614 201.469 84.0486 201.469 84.9737C201.469 85.8989 201.101 86.7861 200.447 87.4403C199.793 88.0944 198.906 88.4619 197.981 88.4619Z" fill="#CCCCCC"/>
<path d="M201.645 103.854H156.137C155.212 103.854 154.324 103.486 153.67 102.832C153.016 102.178 152.649 101.291 152.649 100.366C152.649 99.4405 153.016 98.5533 153.67 97.8991C154.324 97.245 155.212 96.8775 156.137 96.8775H201.645C202.57 96.8775 203.458 97.245 204.112 97.8991C204.766 98.5533 205.133 99.4405 205.133 100.366C205.133 101.291 204.766 102.178 204.112 102.832C203.458 103.486 202.57 103.854 201.645 103.854Z" fill="#CCCCCC"/>
<path d="M204.21 119.978H158.702C157.777 119.978 156.89 119.61 156.235 118.956C155.581 118.302 155.214 117.415 155.214 116.489C155.214 115.564 155.581 114.677 156.235 114.023C156.89 113.369 157.777 113.001 158.702 113.001H204.21C205.136 113.001 206.023 113.369 206.677 114.023C207.331 114.677 207.699 115.564 207.699 116.489C207.699 117.415 207.331 118.302 206.677 118.956C206.023 119.61 205.136 119.978 204.21 119.978Z" fill="#CCCCCC"/>
<path d="M204.23 46.3543H171.528C171.069 46.3547 170.615 46.2649 170.192 46.0898C169.768 45.9147 169.383 45.6578 169.059 45.3339C168.735 45.0099 168.477 44.6252 168.302 44.2018C168.126 43.7783 168.036 43.3245 168.036 42.8661C168.036 42.4077 168.126 41.9538 168.302 41.5304C168.477 41.1069 168.735 40.7222 169.059 40.3983C169.383 40.0743 169.768 39.8175 170.192 39.6424C170.615 39.4673 171.069 39.3774 171.528 39.3779H204.23C205.155 39.3779 206.042 39.7454 206.696 40.3996C207.35 41.0537 207.718 41.941 207.718 42.8661C207.718 43.7912 207.35 44.6784 206.696 45.3326C206.042 45.9868 205.155 46.3543 204.23 46.3543Z" fill="#3E66FB"/>
<path d="M222.255 121.254C224.886 121.254 227.019 119.121 227.019 116.49C227.019 113.859 224.886 111.726 222.255 111.726C219.624 111.726 217.491 113.859 217.491 116.49C217.491 119.121 219.624 121.254 222.255 121.254Z" fill="#CCCCCC"/>
<path d="M206.409 135.735H160.901C159.976 135.735 159.088 135.368 158.434 134.714C157.78 134.06 157.413 133.172 157.413 132.247C157.413 131.322 157.78 130.435 158.434 129.781C159.088 129.127 159.976 128.759 160.901 128.759H206.409C207.334 128.759 208.221 129.127 208.876 129.781C209.53 130.435 209.897 131.322 209.897 132.247C209.897 133.172 209.53 134.06 208.876 134.714C208.221 135.368 207.334 135.735 206.409 135.735Z" fill="#CCCCCC"/>
<path d="M224.454 137.011C227.085 137.011 229.217 134.878 229.217 132.247C229.217 129.616 227.085 127.483 224.454 127.483C221.822 127.483 219.69 129.616 219.69 132.247C219.69 134.878 221.822 137.011 224.454 137.011Z" fill="#CCCCCC"/>
</g>
<defs>
<clipPath id="clip0_2106_64">
<rect width="311" height="172.029" fill="white" transform="translate(-0.000366211)"/>
</clipPath>
</defs>
</svg>
