<svg width="337" height="195" viewBox="0 0 337 195" fill="none" xmlns="http://www.w3.org/2000/svg">
<g clip-path="url(#clip0_2106_63)">
<path d="M168.031 171.15C163.114 171.874 158.139 172.115 153.175 171.868C141.207 171.263 129.436 167.782 119.377 161.237C114.917 158.335 110.663 154.769 108.354 149.98C105.221 143.475 106.317 135.241 110.791 129.576C112.423 127.532 114.431 125.819 116.706 124.53C117.043 124.339 117.387 124.156 117.735 123.98C121.526 122.074 125.784 121.294 130.004 121.734C137.179 122.518 143.801 126.901 147.627 133.024C151.035 138.484 152.222 144.926 152.922 151.383C153.054 152.6 153.168 153.82 153.278 155.033C152.668 158.547 151.709 161.992 150.416 165.316C150.35 165.478 150.296 165.644 150.254 165.814C150.987 167.405 151.685 169.01 152.347 170.629C152.969 170.967 153.666 171.144 154.373 171.142H168.002L168.031 171.15Z" fill="#F2F2F2"/>
<path d="M152.065 171.461C151.974 171.501 151.877 171.523 151.778 171.525C151.679 171.528 151.581 171.51 151.488 171.474C151.396 171.438 151.312 171.384 151.241 171.315C151.171 171.246 151.114 171.163 151.075 171.072C151.017 170.933 150.962 170.794 150.903 170.655C150.375 169.372 149.822 168.102 149.243 166.844C141.83 150.608 130.774 136.299 116.933 125.031C116.853 124.975 116.79 124.9 116.75 124.811C116.711 124.723 116.695 124.625 116.706 124.529C116.726 124.419 116.77 124.314 116.837 124.224C116.903 124.133 116.989 124.058 117.088 124.005C117.187 123.953 117.296 123.923 117.408 123.918C117.521 123.914 117.632 123.935 117.735 123.979C117.79 124.004 117.842 124.037 117.889 124.075C123.811 128.898 129.244 134.293 134.108 140.18C138.974 146.063 143.258 152.403 146.901 159.111C147.894 160.944 148.837 162.802 149.73 164.685C149.906 165.059 150.082 165.436 150.254 165.814C150.987 167.404 151.685 169.009 152.347 170.629C152.358 170.655 152.369 170.684 152.38 170.71C152.414 170.779 152.432 170.855 152.434 170.932C152.436 171.009 152.422 171.085 152.392 171.157C152.362 171.228 152.318 171.292 152.261 171.344C152.205 171.397 152.138 171.436 152.065 171.461Z" fill="white"/>
<path d="M103.462 123.129C111.355 123.129 117.754 116.731 117.754 108.838C117.754 100.945 111.355 94.546 103.462 94.546C95.5688 94.546 89.1702 100.945 89.1702 108.838C89.1702 116.731 95.5688 123.129 103.462 123.129Z" fill="#3E66FB"/>
<path d="M102.045 114.289C101.724 114.289 101.411 114.185 101.153 113.993L101.137 113.981L97.7788 111.409C97.6231 111.29 97.4925 111.141 97.3943 110.972C97.2961 110.802 97.2323 110.615 97.2066 110.42C97.1808 110.226 97.1936 110.029 97.2441 109.839C97.2947 109.65 97.3821 109.472 97.5013 109.317C97.6205 109.161 97.7692 109.03 97.9389 108.932C98.1086 108.834 98.296 108.771 98.4903 108.745C98.6846 108.719 98.8821 108.732 99.0715 108.783C99.2608 108.833 99.4383 108.921 99.5939 109.04L101.769 110.708L106.91 104.004C107.03 103.848 107.178 103.718 107.348 103.62C107.518 103.522 107.705 103.458 107.899 103.432C108.093 103.407 108.291 103.419 108.48 103.47C108.669 103.521 108.847 103.608 109.002 103.727L108.97 103.771L109.003 103.728C109.317 103.969 109.522 104.325 109.574 104.717C109.626 105.109 109.52 105.506 109.279 105.82L103.232 113.706C103.093 113.888 102.913 114.035 102.707 114.136C102.501 114.237 102.275 114.289 102.045 114.289Z" fill="white"/>
<path d="M98.1954 100.441C98.4634 99.9315 98.6164 99.3696 98.6437 98.7948C98.671 98.2199 98.572 97.646 98.3535 97.1136C98.1351 96.5811 97.8025 96.1031 97.3793 95.7131C96.9561 95.323 96.4525 95.0306 95.904 94.8562L80.5804 62.4401L73.5709 67.3553L90.8376 97.6738C90.6058 98.6146 90.7272 99.6078 91.1787 100.465C91.6302 101.322 92.3805 101.984 93.2875 102.325C94.1944 102.666 95.195 102.663 96.0995 102.316C97.0041 101.968 97.7498 101.301 98.1954 100.441V100.441Z" fill="#FFB8B8"/>
<path d="M84.0944 67.8478L75.956 71.487C75.7245 71.5905 75.4733 71.6429 75.2197 71.6406C74.966 71.6384 74.7158 71.5815 74.4862 71.4738C74.2565 71.3661 74.0528 71.2102 73.8888 71.0167C73.7248 70.8231 73.6045 70.5965 73.5359 70.3523L71.136 61.7945C70.613 60.6067 70.5823 59.2601 71.0506 58.0497C71.519 56.8394 72.4482 55.8642 73.6345 55.3379C74.8207 54.8116 76.1673 54.7772 77.3789 55.2422C78.5905 55.7072 79.5683 56.6337 80.0979 57.8185L84.8623 65.2876C84.9987 65.5015 85.0873 65.7422 85.1222 65.9935C85.1571 66.2447 85.1375 66.5005 85.0646 66.7435C84.9917 66.9865 84.8673 67.2108 84.6999 67.4014C84.5325 67.592 84.326 67.7442 84.0944 67.8478Z" fill="#CCCCCC"/>
<path d="M46.5082 103.654C47.0688 103.524 47.594 103.272 48.0469 102.917C48.4998 102.562 48.8693 102.112 49.1294 101.599C49.3895 101.085 49.5338 100.521 49.5523 99.9457C49.5708 99.3705 49.4629 98.7982 49.2363 98.2692L63.7487 65.4819L55.4469 63.3909L43.7921 96.2773C42.9286 96.7169 42.2564 97.458 41.9028 98.3601C41.5492 99.2623 41.5389 100.263 41.8736 101.172C42.2084 102.081 42.8651 102.836 43.7193 103.294C44.5735 103.751 45.5658 103.879 46.5082 103.654H46.5082Z" fill="#FFB8B8"/>
<path d="M42.5522 163.084L46.7737 164.621L54.7115 149.07L48.4807 146.801L42.5522 163.084Z" fill="#FFB8B8"/>
<path d="M53.4879 171.506L40.2203 166.675L42.0867 161.549L50.2282 164.513C51.5877 165.008 52.695 166.023 53.3063 167.334C53.9176 168.646 53.9829 170.146 53.4879 171.506Z" fill="#2F2E41"/>
<path d="M52.5376 154.135C52.2785 154.135 52.0227 154.078 51.7886 153.967L46.937 151.669C46.5392 151.482 46.2258 151.153 46.0584 150.747C45.891 150.341 45.8817 149.887 46.0324 149.474L59.7245 111.558C59.8379 111.244 60.038 110.968 60.3016 110.763C60.5653 110.559 60.8816 110.433 61.2139 110.4C61.5462 110.368 61.8808 110.431 62.179 110.581C62.4771 110.731 62.7265 110.963 62.8982 111.249L70.1402 123.319C70.3014 123.588 70.3881 123.895 70.3914 124.209C70.3947 124.522 70.3146 124.831 70.1593 125.103L54.0767 153.248C53.9208 153.518 53.6965 153.742 53.4263 153.898C53.156 154.054 52.8495 154.136 52.5376 154.135Z" fill="#2F2E41"/>
<path d="M81.734 82.6663L65.7977 78.2837L57.3217 61.332C56.9145 60.5177 56.7223 59.6127 56.7632 58.7031C56.8041 57.7936 57.0769 56.9096 57.5556 56.1351C58.0343 55.3605 58.703 54.7213 59.4982 54.2779C60.2935 53.8345 61.1889 53.6018 62.0994 53.6018H74.7784C76.0945 53.601 77.3644 54.0867 78.3441 54.9655C81.7453 58.0124 88.8909 66.7964 81.8029 82.5131L81.734 82.6663Z" fill="#CCCCCC"/>
<path d="M61.7842 71.3459L53.7099 67.5664C53.4802 67.4589 53.2763 67.3031 53.1122 67.1097C52.9481 66.9163 52.8277 66.6897 52.759 66.4455C52.6903 66.2014 52.6751 65.9452 52.7144 65.6946C52.7536 65.444 52.8464 65.2048 52.9864 64.9933L57.8934 57.5827C58.4503 56.4105 59.4493 55.507 60.6714 55.0702C61.8934 54.6334 63.2388 54.6991 64.4125 55.2527C65.5862 55.8063 66.4926 56.8027 66.9328 58.0235C67.373 59.2443 67.3112 60.5898 66.7609 61.7651L64.2235 70.2533C64.1508 70.4963 64.0265 70.7207 63.8592 70.9114C63.6919 71.1021 63.4855 71.2544 63.254 71.3581C63.0225 71.4618 62.7714 71.5144 62.5177 71.5123C62.2641 71.5102 62.0139 71.4534 61.7842 71.3459Z" fill="#CCCCCC"/>
<path d="M71.5529 167.334H76.0453L78.1828 150.005L71.5518 150.006L71.5529 167.334Z" fill="#FFB8B8"/>
<path d="M84.71 171.506L70.5902 171.506L70.59 166.051L79.2544 166.051C80.7012 166.051 82.0888 166.625 83.112 167.648C84.1351 168.671 84.7099 170.059 84.71 171.506Z" fill="#2F2E41"/>
<path d="M73.2491 160.731C72.8452 160.731 72.4534 160.593 72.1398 160.338C71.8262 160.083 71.61 159.728 71.5277 159.333C70.2363 153.248 63.5293 122.082 58.2946 106.029C52.9685 89.696 62.0391 82.2566 63.9115 80.9312C64.1109 80.7903 64.2693 80.599 64.3706 80.3769L65.731 77.3844C65.872 77.0755 66.0989 76.8136 66.3846 76.6299C66.6702 76.4463 67.0027 76.3486 67.3423 76.3486H67.3533C77.5512 76.4095 80.9795 79.6242 81.9801 81.0036C82.1277 81.209 82.2288 81.4441 82.2765 81.6926C82.3242 81.941 82.3173 82.1969 82.2563 82.4424L75.8039 109.063C75.7639 109.228 75.7548 109.399 75.7772 109.568L82.1968 157.903C82.2276 158.135 82.2119 158.371 82.1505 158.598C82.0892 158.824 81.9834 159.035 81.8393 159.22C81.6953 159.405 81.5159 159.56 81.3116 159.674C81.1073 159.789 80.8821 159.862 80.6493 159.889L73.4564 160.719C73.3876 160.727 73.3184 160.731 73.2491 160.731Z" fill="#2F2E41"/>
<path d="M224.758 75.1239C227.389 75.1239 229.522 72.9911 229.522 70.36C229.522 67.729 227.389 65.5962 224.758 65.5962C222.127 65.5962 219.994 67.729 219.994 70.36C219.994 72.9911 222.127 75.1239 224.758 75.1239Z" fill="#3E66FB"/>
<path d="M224.286 72.1771C224.179 72.1773 224.074 72.1426 223.988 72.0783L223.983 72.0743L222.864 71.2172C222.812 71.1775 222.768 71.128 222.735 71.0714C222.702 71.0148 222.681 70.9523 222.672 70.8875C222.663 70.8226 222.668 70.7567 222.684 70.6935C222.701 70.6303 222.731 70.571 222.77 70.5191C222.81 70.4671 222.86 70.4236 222.916 70.3909C222.973 70.3581 223.036 70.3369 223.1 70.3284C223.165 70.3199 223.231 70.3243 223.294 70.3413C223.358 70.3583 223.417 70.3876 223.469 70.4275L224.194 70.9836L225.907 68.7487C225.947 68.6969 225.997 68.6534 226.053 68.6207C226.11 68.588 226.172 68.5668 226.237 68.5582C226.302 68.5497 226.368 68.554 226.431 68.5709C226.494 68.5877 226.553 68.6169 226.605 68.6566L226.594 68.6711L226.605 68.6569C226.71 68.7372 226.778 68.8558 226.795 68.9865C226.813 69.1172 226.777 69.2495 226.697 69.3542L224.681 71.983C224.635 72.0435 224.575 72.0925 224.506 72.1262C224.438 72.1599 224.362 72.1773 224.286 72.1771Z" fill="white"/>
<path d="M224.758 89.0487C227.389 89.0487 229.522 86.9158 229.522 84.2848C229.522 81.6538 227.389 79.5209 224.758 79.5209C222.127 79.5209 219.994 81.6538 219.994 84.2848C219.994 86.9158 222.127 89.0487 224.758 89.0487Z" fill="#3E66FB"/>
<path d="M224.286 86.1018C224.179 86.102 224.074 86.0674 223.988 86.0031L223.983 85.9991L222.864 85.1419C222.812 85.1022 222.768 85.0527 222.735 84.9961C222.702 84.9396 222.681 84.8771 222.672 84.8122C222.663 84.7474 222.668 84.6815 222.684 84.6182C222.701 84.555 222.731 84.4957 222.77 84.4438C222.81 84.3919 222.86 84.3483 222.916 84.3156C222.973 84.2829 223.036 84.2617 223.1 84.2532C223.165 84.2447 223.231 84.249 223.294 84.266C223.358 84.283 223.417 84.3124 223.469 84.3523L224.194 84.9083L225.907 82.6734C225.947 82.6216 225.997 82.5781 226.053 82.5454C226.11 82.5127 226.172 82.4915 226.237 82.483C226.302 82.4744 226.368 82.4787 226.431 82.4956C226.494 82.5125 226.553 82.5416 226.605 82.5814L226.594 82.5958L226.605 82.5816C226.71 82.662 226.778 82.7805 226.795 82.9112C226.813 83.042 226.777 83.1742 226.697 83.279L224.681 85.9077C224.635 85.9683 224.575 86.0173 224.506 86.051C224.438 86.0846 224.362 86.102 224.286 86.1018Z" fill="white"/>
<path d="M227.323 105.173C229.954 105.173 232.087 103.04 232.087 100.409C232.087 97.7784 229.954 95.6455 227.323 95.6455C224.692 95.6455 222.559 97.7784 222.559 100.409C222.559 103.04 224.692 105.173 227.323 105.173Z" fill="#3E66FB"/>
<path d="M226.851 102.226C226.744 102.227 226.639 102.192 226.554 102.128L226.548 102.124L225.429 101.267C225.377 101.227 225.333 101.177 225.3 101.121C225.267 101.064 225.246 101.002 225.237 100.937C225.229 100.872 225.233 100.806 225.25 100.743C225.267 100.68 225.296 100.62 225.335 100.568C225.375 100.517 225.425 100.473 225.482 100.44C225.538 100.408 225.601 100.386 225.666 100.378C225.731 100.369 225.796 100.374 225.86 100.391C225.923 100.408 225.982 100.437 226.034 100.477L226.759 101.033L228.473 98.7981C228.512 98.7462 228.562 98.7027 228.618 98.67C228.675 98.6374 228.737 98.6161 228.802 98.6076C228.867 98.599 228.933 98.6033 228.996 98.6202C229.059 98.6371 229.118 98.6663 229.17 98.706L229.159 98.7205L229.17 98.7062C229.275 98.7866 229.343 98.9051 229.36 99.0359C229.378 99.1666 229.342 99.2988 229.262 99.4036L227.247 102.032C227.2 102.093 227.14 102.142 227.071 102.176C227.003 102.209 226.927 102.227 226.851 102.226Z" fill="white"/>
<path d="M273.26 140.183C273.211 140.183 273.18 140.182 273.169 140.181L267.254 140.182V139.31H273.19C273.328 139.314 276.132 139.394 278.715 136.259C282.565 131.587 285.727 120.021 278.925 91.4548C269.779 53.043 277.407 19.1082 281.111 6.30128C281.294 5.66767 281.326 5.0003 281.207 4.3519C281.087 3.7035 280.818 3.09184 280.421 2.56525C280.024 2.03865 279.51 1.61155 278.92 1.31769C278.33 1.02384 277.679 0.871274 277.02 0.872057H188.692C188.021 0.872958 187.359 1.03218 186.76 1.33681C186.162 1.64143 185.644 2.08288 185.248 2.62531C183.679 4.78372 181.525 8.93021 180.178 16.4278L179.32 16.2736C180.696 8.61319 182.92 4.34471 184.542 2.11263C185.019 1.45903 185.644 0.9271 186.365 0.560027C187.086 0.192954 187.883 0.00108566 188.692 2.37338e-06H277.02C277.815 -0.000762294 278.598 0.183257 279.31 0.537521C280.021 0.891785 280.64 1.40659 281.118 2.04126C281.596 2.67593 281.92 3.41307 282.064 4.19446C282.209 4.97584 282.169 5.78006 281.949 6.54356C278.264 19.2841 270.676 53.0428 279.773 91.253C286.671 120.221 283.355 132.037 279.359 136.849C276.723 140.022 273.819 140.183 273.26 140.183Z" fill="#E6E6E6"/>
<path d="M257.345 156.098C257.296 156.098 257.265 156.097 257.254 156.097L251.34 156.097V155.225H257.275C257.414 155.229 260.217 155.309 262.8 152.174C266.65 147.503 269.812 135.937 263.01 107.37C253.865 68.9585 261.492 35.0238 265.196 22.2168C265.379 21.5832 265.412 20.9158 265.292 20.2674C265.172 19.619 264.903 19.0074 264.506 18.4808C264.109 17.9542 263.596 17.5271 263.005 17.2332C262.415 16.9394 261.765 16.7868 261.105 16.7876H172.777C172.106 16.7885 171.444 16.9477 170.845 17.2523C170.247 17.557 169.729 17.9984 169.333 18.5408C167.764 20.6993 165.611 24.8457 164.263 32.3433L163.405 32.1892C164.781 24.5287 167.005 20.2602 168.628 18.0282C169.104 17.3746 169.729 16.8426 170.45 16.4756C171.171 16.1085 171.968 15.9166 172.777 15.9155H261.105C261.9 15.9148 262.684 16.0988 263.395 16.4531C264.106 16.8073 264.725 17.3221 265.203 17.9568C265.681 18.5915 266.005 19.3286 266.149 20.11C266.294 20.8914 266.254 21.6956 266.034 22.4591C262.349 35.1996 254.761 68.9583 263.859 107.169C270.756 136.137 267.44 147.953 263.444 152.764C260.808 155.938 257.904 156.098 257.345 156.098Z" fill="#CCCCCC"/>
<path d="M247.943 123.085C238.844 84.8752 246.434 51.1139 250.12 38.3759C250.34 37.6124 250.379 36.8083 250.234 36.0271C250.09 35.2458 249.766 34.5088 249.288 33.8742C248.81 33.2396 248.191 32.7247 247.48 32.3701C246.769 32.0155 245.986 31.831 245.191 31.8311H156.862C156.053 31.8319 155.256 32.0234 154.535 32.3902C153.814 32.7569 153.19 33.2886 152.713 33.9418C149.148 38.845 141.749 55.1045 150.013 100.094C154.432 124.163 154.366 140.572 152.922 151.383C152.112 157.47 150.863 161.779 149.73 164.685L149.609 164.993C149.371 165.581 149.247 166.209 149.243 166.844C149.235 167.56 149.378 168.27 149.664 168.927C149.95 169.584 150.373 170.173 150.903 170.655C151.249 170.979 151.64 171.25 152.065 171.461C152.417 171.641 152.79 171.777 153.175 171.868C153.567 171.963 153.97 172.011 154.373 172.01H241.34C241.351 172.01 241.38 172.014 241.432 172.014C241.989 172.014 244.895 171.853 247.529 168.679C251.524 163.868 254.84 152.053 247.943 123.085ZM246.884 168.089C244.301 171.226 241.498 171.146 241.362 171.142H154.373C153.677 171.142 152.991 170.971 152.376 170.645C151.761 170.318 151.235 169.846 150.844 169.269C150.501 168.771 150.27 168.203 150.168 167.607C150.066 167.01 150.096 166.398 150.254 165.814C150.296 165.644 150.35 165.477 150.416 165.315C151.709 161.991 152.668 158.547 153.278 155.033C155.344 143.764 155.729 126.376 150.87 99.9364C142.669 55.2804 149.921 39.2664 153.417 34.4549C153.813 33.9132 154.332 33.4725 154.93 33.1682C155.529 32.8639 156.19 32.7046 156.862 32.7032H245.191C245.85 32.7028 246.5 32.8555 247.09 33.1493C247.68 33.4432 248.194 33.8701 248.59 34.3964C248.987 34.9227 249.256 35.534 249.376 36.182C249.495 36.83 249.463 37.497 249.281 38.1304C245.576 50.938 237.95 84.8752 247.097 123.287C253.898 151.852 250.736 163.417 246.884 168.089Z" fill="#3F3D56"/>
<path d="M205.981 73.4377H160.472C159.547 73.4377 158.66 73.0702 158.006 72.416C157.352 71.7619 156.984 70.8746 156.984 69.9495C156.984 69.0244 157.352 68.1372 158.006 67.483C158.66 66.8288 159.547 66.4613 160.472 66.4613H205.981C206.906 66.4613 207.793 66.8288 208.447 67.483C209.101 68.1372 209.469 69.0244 209.469 69.9495C209.469 70.8746 209.101 71.7619 208.447 72.416C207.793 73.0702 206.906 73.4377 205.981 73.4377Z" fill="#CCCCCC"/>
<path d="M205.981 88.4619H160.472C159.547 88.4619 158.66 88.0944 158.006 87.4403C157.352 86.7861 156.984 85.8989 156.984 84.9737C156.984 84.0486 157.352 83.1614 158.006 82.5072C158.66 81.8531 159.547 81.4855 160.472 81.4855H205.981C206.906 81.4855 207.793 81.8531 208.447 82.5072C209.101 83.1614 209.469 84.0486 209.469 84.9737C209.469 85.8989 209.101 86.7861 208.447 87.4403C207.793 88.0944 206.906 88.4619 205.981 88.4619Z" fill="#CCCCCC"/>
<path d="M209.645 103.854H164.137C163.212 103.854 162.324 103.486 161.67 102.832C161.016 102.178 160.649 101.291 160.649 100.366C160.649 99.4405 161.016 98.5533 161.67 97.8991C162.324 97.245 163.212 96.8775 164.137 96.8775H209.645C210.57 96.8775 211.458 97.245 212.112 97.8991C212.766 98.5533 213.133 99.4405 213.133 100.366C213.133 101.291 212.766 102.178 212.112 102.832C211.458 103.486 210.57 103.854 209.645 103.854Z" fill="#CCCCCC"/>
<path d="M212.21 119.978H166.702C165.777 119.978 164.89 119.61 164.235 118.956C163.581 118.302 163.214 117.415 163.214 116.489C163.214 115.564 163.581 114.677 164.235 114.023C164.89 113.369 165.777 113.001 166.702 113.001H212.21C213.136 113.001 214.023 113.369 214.677 114.023C215.331 114.677 215.699 115.564 215.699 116.489C215.699 117.415 215.331 118.302 214.677 118.956C214.023 119.61 213.136 119.978 212.21 119.978Z" fill="#CCCCCC"/>
<path d="M212.23 46.3543H179.528C179.069 46.3547 178.615 46.2649 178.192 46.0898C177.768 45.9147 177.383 45.6578 177.059 45.3339C176.735 45.0099 176.477 44.6252 176.302 44.2018C176.126 43.7783 176.036 43.3245 176.036 42.8661C176.036 42.4077 176.126 41.9538 176.302 41.5304C176.477 41.1069 176.735 40.7222 177.059 40.3983C177.383 40.0743 177.768 39.8175 178.192 39.6424C178.615 39.4673 179.069 39.3774 179.528 39.3779H212.23C213.155 39.3779 214.042 39.7454 214.696 40.3996C215.35 41.0537 215.718 41.941 215.718 42.8661C215.718 43.7912 215.35 44.6784 214.696 45.3326C214.042 45.9868 213.155 46.3543 212.23 46.3543Z" fill="#3E66FB"/>
<path d="M230.255 121.254C232.886 121.254 235.019 119.121 235.019 116.49C235.019 113.859 232.886 111.726 230.255 111.726C227.624 111.726 225.491 113.859 225.491 116.49C225.491 119.121 227.624 121.254 230.255 121.254Z" fill="#CCCCCC"/>
<path d="M214.409 135.735H168.901C167.976 135.735 167.088 135.368 166.434 134.714C165.78 134.06 165.413 133.172 165.413 132.247C165.413 131.322 165.78 130.435 166.434 129.781C167.088 129.127 167.976 128.759 168.901 128.759H214.409C215.334 128.759 216.221 129.127 216.876 129.781C217.53 130.435 217.897 131.322 217.897 132.247C217.897 133.172 217.53 134.06 216.876 134.714C216.221 135.368 215.334 135.735 214.409 135.735Z" fill="#CCCCCC"/>
<path d="M232.454 137.011C235.085 137.011 237.217 134.878 237.217 132.247C237.217 129.616 235.085 127.483 232.454 127.483C229.822 127.483 227.69 129.616 227.69 132.247C227.69 134.878 229.822 137.011 232.454 137.011Z" fill="#CCCCCC"/>
</g>
<path d="M336.527 194.14H0.472417C0.347258 194.14 0.227352 194.09 0.138979 194.001C0.0506058 193.912 0.000976562 193.792 0.000976562 193.667C0.000976562 193.542 0.0506058 193.422 0.138979 193.333C0.227352 193.245 0.347258 193.195 0.472417 193.194H336.527C336.652 193.195 336.772 193.245 336.86 193.333C336.949 193.422 336.998 193.542 336.998 193.667C336.998 193.792 336.949 193.912 336.86 194.001C336.772 194.09 336.652 194.14 336.527 194.14Z" fill="#3F3D56"/>
<defs>
<clipPath id="clip0_2106_63">
<rect width="311" height="172.029" fill="white" transform="translate(7.99963)"/>
</clipPath>
</defs>
</svg>
